<svg width="27" height="26" viewBox="0 0 27 26" fill="none" xmlns="http://www.w3.org/2000/svg">
<path d="M26.2681 7.08934C26.1075 6.93157 25.9096 6.81703 25.6928 6.75641C25.4759 6.69579 25.2473 6.69107 25.0281 6.74267C24.7393 6.80869 24.4444 6.84443 24.1481 6.84934C23.0873 6.84934 22.0699 6.42791 21.3197 5.67777C20.5696 4.92762 20.1481 3.91021 20.1481 2.84934C20.152 2.55742 20.1877 2.2668 20.2548 1.98267C20.3078 1.76258 20.3038 1.53262 20.2434 1.31447C20.1829 1.09632 20.0679 0.897157 19.9091 0.735755C19.7504 0.574352 19.5532 0.456023 19.3361 0.391918C19.1189 0.327812 18.8891 0.320042 18.6681 0.369339C17.3411 0.662324 16.1375 1.35942 15.223 2.36467C14.3085 3.36992 13.728 4.63391 13.5615 5.98267C12.8372 5.77569 12.0881 5.66804 11.3348 5.66267C9.41328 5.66158 7.55556 6.35214 6.1013 7.60809C4.64705 8.86404 3.69343 10.6015 3.41481 12.5027C2.48632 12.7612 1.66066 13.3009 1.05125 14.0476C0.441843 14.7943 0.0785799 15.7114 0.0113649 16.6728C-0.0558501 17.6343 0.17628 18.593 0.675867 19.4172C1.17545 20.2415 1.91799 20.8908 2.80147 21.276C2.97139 21.3433 3.15206 21.3795 3.33481 21.3827C3.64307 21.3852 3.94268 21.2808 4.18265 21.0873C4.42262 20.8938 4.58812 20.6231 4.65099 20.3213C4.71387 20.0195 4.67022 19.7053 4.52749 19.432C4.38476 19.1588 4.15176 18.9435 3.86814 18.8227C3.5104 18.6703 3.20565 18.4156 2.99216 18.0906C2.77866 17.7657 2.66594 17.3848 2.66814 16.996C2.66814 16.4656 2.87885 15.9569 3.25393 15.5818C3.629 15.2067 4.13771 14.996 4.66814 14.996C5.02176 14.996 5.3609 14.8555 5.61095 14.6055C5.861 14.3554 6.00147 14.0163 6.00147 13.6627C6.00147 12.2482 6.56338 10.8916 7.56357 9.89144C8.56376 8.89124 9.92032 8.32934 11.3348 8.32934C12.3694 8.32852 13.381 8.63478 14.2415 9.20934C15.2107 9.84689 15.9456 10.7831 16.3348 11.876C16.411 12.1051 16.548 12.3092 16.7312 12.4666C16.9144 12.6239 17.1368 12.7286 17.3748 12.7693C18.0156 12.8387 18.6186 13.1065 19.0998 13.5353C19.581 13.9641 19.9162 14.5324 20.0586 15.161C20.2011 15.7895 20.1437 16.4469 19.8944 17.0412C19.6451 17.6355 19.2164 18.1372 18.6681 18.476C18.3711 18.6705 18.1635 18.975 18.091 19.3226C18.0185 19.6702 18.087 20.0323 18.2815 20.3293C18.476 20.6264 18.7805 20.834 19.1281 20.9065C19.4756 20.979 19.8378 20.9105 20.1348 20.716C20.9228 20.1832 21.5665 19.4636 22.0086 18.6213C22.4506 17.7791 22.6772 16.8405 22.6681 15.8893C22.6733 14.9602 22.4489 14.0442 22.0148 13.2227C23.1598 12.9029 24.197 12.2792 25.0163 11.4177C25.8355 10.5562 26.4063 9.489 26.6681 8.32934C26.7131 8.1057 26.6999 7.87426 26.6299 7.65715C26.5599 7.44005 26.4353 7.24455 26.2681 7.08934V7.08934ZM20.1481 10.8493C19.9618 10.8644 19.7745 10.8644 19.5881 10.8493C19.297 10.6499 18.9892 10.4759 18.6681 10.3293C18.1217 9.13179 17.2881 8.0876 16.2415 7.28934V6.79601C16.2414 6.21824 16.3666 5.64733 16.6082 5.12254C16.8499 4.59775 17.2024 4.13155 17.6415 3.75601C17.8479 5.17848 18.5086 6.49613 19.525 7.51251C20.5413 8.52889 21.859 9.18955 23.2815 9.39601C22.901 9.85697 22.422 10.2268 21.8798 10.4783C21.3375 10.7298 20.7458 10.8566 20.1481 10.8493V10.8493ZM12.1481 16.1027C11.9276 15.9536 11.6676 15.874 11.4015 15.874C11.1353 15.874 10.8753 15.9536 10.6548 16.1027C10.4548 16.2093 7.33481 18.3293 7.33481 21.6627C7.33481 22.7235 7.75623 23.741 8.50638 24.4911C9.25652 25.2412 10.2739 25.6627 11.3348 25.6627C12.3957 25.6627 13.4131 25.2412 14.1632 24.4911C14.9134 23.741 15.3348 22.7235 15.3348 21.6627C15.3348 18.3293 12.2015 16.196 12.0815 16.1027H12.1481ZM11.3348 22.996C10.9812 22.996 10.642 22.8555 10.392 22.6055C10.1419 22.3554 10.0015 22.0163 10.0015 21.6627C10.0857 20.6352 10.5633 19.6799 11.3348 18.996C12.1063 19.6799 12.5839 20.6352 12.6681 21.6627C12.6681 22.0163 12.5277 22.3554 12.2776 22.6055C12.0276 22.8555 11.6884 22.996 11.3348 22.996Z" fill="black"/>
</svg>
